<?xml version="1.0" standalone="no"?>
<!DOCTYPE svg PUBLIC "-//W3C//DTD SVG 20010904//EN"
 "http://www.w3.org/TR/2001/REC-SVG-20010904/DTD/svg10.dtd">
<svg version="1.0" xmlns="http://www.w3.org/2000/svg"
 width="1299.000000pt" height="1299.000000pt" viewBox="0 0 1299.000000 1299.000000"
 preserveAspectRatio="xMidYMid meet">
<metadata>
Created by potrace 1.14, written by Peter Selinger 2001-2017
</metadata>
<g transform="translate(0.000000,1299.000000) scale(0.100000,-0.100000)"
fill="#000000" stroke="none">
<path d="M0 6495 l0 -6495 6495 0 6495 0 0 6495 0 6495 -6495 0 -6495 0 0
-6495z m5500 6145 c0 -5 -4 -10 -10 -10 -5 0 -10 5 -10 10 0 6 5 10 10 10 6 0
10 -4 10 -10z m-4950 -49 c0 -6 -4 -13 -10 -16 -5 -3 -10 1 -10 9 0 9 5 16 10
16 6 0 10 -4 10 -9z m6735 -21 c3 -5 1 -10 -4 -10 -6 0 -11 5 -11 10 0 6 2 10
4 10 3 0 8 -4 11 -10z m-2887 -349 c3 -8 -1 -12 -9 -9 -7 2 -15 10 -17 17 -3
8 1 12 9 9 7 -2 15 -10 17 -17z m-1273 -271 c3 -6 -1 -13 -10 -16 -19 -8 -30
0 -20 15 8 14 22 14 30 1z m-1895 -14 c0 -3 -4 -8 -10 -11 -5 -3 -10 -1 -10 4
0 6 5 11 10 11 6 0 10 -2 10 -4z m4020 -177 c0 -5 -7 -9 -15 -9 -15 0 -20 12
-9 23 8 8 24 -1 24 -14z m-489 -11 c6 -13 22 -34 35 -48 12 -14 34 -51 48 -82
42 -96 72 -137 95 -131 15 4 24 -4 40 -36 12 -22 21 -51 21 -63 0 -13 10 -43
21 -68 30 -64 79 -220 79 -250 0 -14 7 -63 15 -110 33 -189 56 -362 65 -490
13 -173 12 -182 -2 -178 -33 11 -90 190 -113 355 -8 59 -15 110 -15 115 0 5
-7 8 -16 6 -13 -2 -21 14 -35 77 -11 44 -24 91 -29 105 -6 15 -7 37 -1 55 5
20 4 38 -4 55 -7 14 -23 61 -35 105 -12 44 -35 104 -51 133 -16 29 -29 57 -29
62 0 6 -28 71 -61 146 -71 158 -94 231 -77 251 16 20 36 16 49 -9z m-4191 -28
c0 -5 -4 -10 -10 -10 -5 0 -10 5 -10 10 0 6 5 10 10 10 6 0 10 -4 10 -10z
m4330 -80 c0 -5 -2 -10 -4 -10 -3 0 -8 5 -11 10 -3 6 -1 10 4 10 6 0 11 -4 11
-10z m-3700 -26 c0 -8 -4 -12 -10 -9 -5 3 -10 10 -10 16 0 5 5 9 10 9 6 0 10
-7 10 -16z m3729 -26 c10 -30 9 -31 -4 -14 -8 11 -15 26 -15 33 0 22 8 14 19
-19z m5411 12 c0 -5 -7 -10 -15 -10 -8 0 -15 5 -15 10 0 6 7 10 15 10 8 0 15
-4 15 -10z m-430 -60 c0 -5 -4 -10 -10 -10 -5 0 -10 5 -10 10 0 6 5 10 10 10
6 0 10 -4 10 -10z m-1630 -150 c0 -5 -5 -12 -11 -16 -14 -8 -33 11 -25 25 7
11 36 4 36 -9z m4180 -740 c0 -5 -4 -10 -10 -10 -5 0 -10 5 -10 10 0 6 5 10
10 10 6 0 10 -4 10 -10z m-3520 -220 c0 -5 -7 -10 -15 -10 -8 0 -15 5 -15 10
0 6 7 10 15 10 8 0 15 -4 15 -10z m-2040 -86 c0 -8 -4 -12 -10 -9 -5 3 -10 10
-10 16 0 5 5 9 10 9 6 0 10 -7 10 -16z m-1115 -44 c-3 -5 -10 -10 -16 -10 -5
0 -9 5 -9 10 0 6 7 10 16 10 8 0 12 -4 9 -10z m5083 -102 c-6 -18 -28 -21 -28
-4 0 9 7 16 16 16 9 0 14 -5 12 -12z m-5628 -68 c0 -5 -4 -10 -10 -10 -5 0
-10 5 -10 10 0 6 5 10 10 10 6 0 10 -4 10 -10z m2498 -64 c3 -13 -1 -17 -14
-14 -11 2 -20 11 -22 22 -3 13 1 17 14 14 11 -2 20 -11 22 -22z m-2613 -156
c8 -13 -5 -13 -25 0 -13 8 -13 10 2 10 9 0 20 -4 23 -10z m65 -156 c0 -2 -7
-4 -15 -4 -8 0 -15 4 -15 10 0 5 7 7 15 4 8 -4 15 -8 15 -10z m2680 -5 c0 -5
-7 -9 -15 -9 -15 0 -20 12 -9 23 8 8 24 -1 24 -14z m-2345 -197 c14 -55 14
-56 -10 -80 l-24 -23 -16 31 c-18 34 -32 187 -20 217 5 14 12 7 31 -36 13 -30
31 -79 39 -109z m3865 38 c0 -5 -4 -10 -10 -10 -5 0 -10 5 -10 10 0 6 5 10 10
10 6 0 10 -4 10 -10z m-2110 -200 c0 -5 -5 -10 -11 -10 -5 0 -7 5 -4 10 3 6 8
10 11 10 2 0 4 -4 4 -10z m1400 -161 c0 -5 -7 -9 -15 -9 -15 0 -20 12 -9 23 8
8 24 -1 24 -14z m220 11 c0 -5 -4 -10 -10 -10 -5 0 -10 5 -10 10 0 6 5 10 10
10 6 0 10 -4 10 -10z m315 -10 c3 -5 1 -10 -4 -10 -6 0 -11 5 -11 10 0 6 2 10
4 10 3 0 8 -4 11 -10z m1790 0 c3 -5 -1 -10 -10 -10 -9 0 -13 5 -10 10 3 6 8
10 10 10 2 0 7 -4 10 -10z m-3285 -104 c0 -3 -4 -8 -10 -11 -5 -3 -10 -1 -10
4 0 6 5 11 10 11 6 0 10 -2 10 -4z m130 -36 c0 -5 -4 -10 -10 -10 -5 0 -10 5
-10 10 0 6 5 10 10 10 6 0 10 -4 10 -10z m-1100 -10 c0 -5 -4 -10 -10 -10 -5
0 -10 5 -10 10 0 6 5 10 10 10 6 0 10 -4 10 -10z m1070 -36 c0 -8 -5 -12 -10
-9 -6 4 -8 11 -5 16 9 14 15 11 15 -7z m-1998 -16 c-7 -7 -12 -8 -12 -2 0 14
12 26 19 19 2 -3 -1 -11 -7 -17z m1048 -18 c0 -5 -4 -10 -9 -10 -6 0 -13 5
-16 10 -3 6 1 10 9 10 9 0 16 -4 16 -10z m1017 -11 c16 -16 5 -39 -17 -39 -25
0 -35 18 -20 35 15 18 22 19 37 4z m-504 -5 c9 -10 -4 -34 -18 -34 -17 0 -28
17 -20 30 7 11 28 13 38 4z m-1610 -102 c22 -51 16 -91 -21 -149 -53 -82 -40
-155 36 -199 30 -18 47 -23 50 -15 7 20 56 39 85 34 20 -4 34 0 48 16 21 23
62 37 78 26 6 -3 38 13 72 36 56 38 63 40 86 28 14 -7 51 -13 84 -14 50 0 61
3 74 23 18 25 59 29 81 8 8 -8 23 -13 34 -11 11 2 20 0 20 -6 0 -5 9 -9 20 -9
11 0 20 7 20 15 0 20 6 19 30 -5 20 -20 46 -28 36 -11 -8 13 21 34 39 27 8 -3
15 -14 15 -24 0 -24 35 -56 50 -47 7 4 23 2 36 -5 19 -11 37 -11 96 0 40 7 88
19 107 27 18 7 44 13 57 13 34 0 93 55 87 80 -4 14 0 20 11 20 9 0 16 -6 16
-12 1 -7 7 -2 15 12 l14 25 2 -35 c1 -19 1 -39 0 -44 -1 -5 23 -6 54 -4 42 4
55 1 55 -9 0 -8 11 -30 25 -50 13 -20 22 -40 20 -44 -3 -4 2 -9 10 -13 8 -3
17 -1 20 4 4 6 11 10 16 10 6 0 8 -4 5 -9 -3 -5 15 -11 42 -14 78 -9 115 -18
160 -39 37 -18 47 -19 68 -8 26 14 30 25 14 35 -14 9 -12 41 3 54 11 8 18 7
31 -7 9 -10 13 -22 9 -25 -3 -4 -1 -7 6 -7 9 0 11 -8 7 -26 -6 -24 -5 -26 17
-20 18 4 28 -1 46 -24 12 -16 25 -29 29 -29 19 3 25 -2 12 -11 -8 -5 -11 -12
-7 -16 9 -9 37 15 37 32 0 17 31 19 47 3 17 -17 100 -1 106 21 6 24 64 48 111
47 26 -1 33 -4 25 -13 -17 -20 6 -26 82 -18 52 5 69 10 65 20 -3 8 0 11 9 8 8
-4 15 5 20 25 6 29 10 31 51 31 28 0 44 4 44 13 0 8 4 7 10 -3 8 -12 10 -9 10
12 0 18 7 29 20 33 11 3 20 10 20 16 0 7 62 39 76 39 1 0 2 -13 2 -30 -1 -16
-4 -30 -8 -30 -5 0 -11 -7 -14 -15 -3 -10 -1 -15 7 -14 12 2 25 -2 75 -22 39
-15 42 -11 24 36 -21 57 -7 77 33 51 22 -15 25 -22 19 -49 -3 -18 -11 -38 -16
-44 -8 -10 -6 -13 6 -13 9 0 16 5 16 11 0 8 4 8 15 -1 11 -9 22 -9 49 0 20 6
40 8 46 5 6 -4 17 -1 25 5 8 7 22 10 30 6 8 -3 27 0 41 6 19 9 33 9 60 -1 60
-22 86 -20 110 6 25 27 60 27 58 0 -2 -22 0 -22 32 8 32 30 46 23 63 -35 9
-30 17 -40 33 -40 17 0 18 2 8 15 -9 10 -9 15 -1 15 6 0 11 6 11 14 0 16 26
46 41 46 5 0 9 -13 9 -30 0 -25 5 -31 33 -38 17 -5 42 -5 55 -1 21 8 26 5 23
-15 -1 -5 12 -20 28 -33 20 -16 28 -30 24 -41 -6 -15 -3 -14 15 1 24 22 45 14
37 -14 -5 -14 0 -26 16 -40 28 -25 61 -24 79 1 8 11 22 20 31 20 9 0 29 16 43
35 30 39 37 96 17 134 -16 28 8 69 62 105 47 32 57 32 57 2 0 -33 24 -50 57
-42 56 14 67 12 73 -14 6 -27 44 -40 63 -21 15 15 37 14 37 -1 0 -6 7 -19 15
-28 28 -31 28 -72 0 -103 l-26 -27 26 -10 c28 -11 33 -28 10 -36 -21 -8 -19
-41 4 -53 15 -8 22 -6 33 11 17 26 38 17 38 -17 0 -15 -9 -29 -22 -37 -13 -7
-24 -20 -25 -28 -1 -8 -5 -26 -8 -40 -3 -14 -1 -32 4 -40 8 -12 12 -12 29 3
10 9 23 17 29 17 6 0 16 7 23 15 16 19 30 19 30 0 0 -8 -13 -21 -30 -30 -16
-9 -30 -20 -30 -25 0 -13 7 -13 31 0 12 7 19 7 19 1 0 -14 28 -3 65 24 17 12
57 31 90 43 63 21 92 16 124 -22 16 -18 -6 -56 -45 -76 -14 -8 -30 -22 -35
-32 -5 -10 -17 -18 -26 -18 -20 0 -53 -28 -53 -46 0 -18 19 -27 33 -16 22 17
116 44 129 36 27 -17 48 -39 48 -51 0 -20 18 -15 25 7 3 11 11 20 17 20 6 0 3
-11 -6 -25 -9 -14 -14 -30 -11 -35 9 -15 25 -2 25 20 0 25 60 61 88 53 28 -7
28 -19 -2 -38 -22 -15 -42 -65 -48 -125 -2 -15 -10 -26 -22 -28 -10 -2 -28
-13 -40 -24 -12 -11 -38 -31 -58 -44 -21 -13 -38 -28 -38 -33 0 -21 53 -70 83
-76 17 -4 49 -16 69 -28 31 -17 40 -18 53 -7 12 10 19 9 40 -4 37 -24 32 -46
-10 -46 -31 0 -35 -3 -35 -25 0 -14 -8 -32 -17 -40 -63 -54 -93 -75 -109 -75
-20 -1 -64 -23 -109 -55 l-28 -19 -21 27 c-12 15 -25 27 -28 27 -4 0 -16 -20
-27 -45 -22 -49 -31 -53 -75 -30 -33 17 -72 20 -81 5 -4 -7 -43 -9 -103 -7
-53 2 -108 0 -121 -5 -27 -10 -49 1 -98 52 -27 27 -39 32 -81 33 -31 1 -59 -6
-76 -16 -27 -18 -29 -16 -26 20 2 33 -49 52 -67 26 -8 -9 -11 -23 -8 -30 18
-44 18 -43 -15 -30 -27 10 -33 10 -41 -6 -6 -9 -16 -17 -23 -17 -7 0 -21 -9
-31 -20 -10 -11 -24 -20 -30 -20 -24 0 -39 -31 -36 -80 1 -26 -2 -51 -7 -54
-5 -3 -7 -39 -4 -80 5 -84 6 -83 -85 -90 -37 -2 -56 -10 -76 -30 -15 -15 -37
-26 -53 -26 -15 0 -24 -3 -21 -7 9 -8 -42 -63 -59 -63 -27 0 -46 -32 -39 -67
6 -32 4 -34 -42 -54 -26 -11 -61 -23 -76 -26 -16 -3 -31 -12 -34 -19 -3 -8
-13 -14 -22 -14 -9 0 -32 -8 -51 -18 -19 -11 -47 -22 -61 -25 -14 -4 -40 -20
-57 -37 -18 -16 -36 -30 -42 -30 -6 0 -28 -12 -50 -26 -34 -22 -47 -26 -84
-21 -41 6 -46 4 -85 -34 -22 -22 -41 -44 -41 -49 0 -9 -73 -40 -96 -40 -31 0
-27 -31 11 -70 34 -34 45 -39 102 -46 65 -7 73 -11 34 -19 -12 -2 -48 -13 -79
-24 -56 -19 -82 -23 -274 -41 -96 -9 -157 -29 -159 -53 -1 -6 -2 -19 -3 -27 0
-8 -9 -14 -20 -13 -10 1 -30 -12 -43 -27 -13 -16 -45 -36 -71 -46 -26 -9 -51
-21 -56 -26 -6 -4 -19 -8 -30 -8 -47 0 -96 -27 -125 -68 -22 -30 -40 -43 -66
-48 -25 -4 -35 -11 -35 -25 0 -11 -4 -19 -10 -19 -5 0 -10 5 -10 11 0 7 -9 0
-21 -15 -11 -14 -27 -26 -35 -26 -8 0 -14 -4 -14 -8 0 -4 -26 -14 -58 -21
l-58 -13 1 -86 c1 -72 5 -93 24 -124 13 -21 28 -38 34 -38 7 0 5 -5 -3 -10
-11 -7 -11 -10 -2 -10 7 0 25 -14 39 -30 14 -17 30 -30 37 -29 25 3 36 -2 36
-15 0 -12 17 -22 59 -31 8 -2 17 -8 20 -12 10 -14 151 -82 151 -73 0 8 101
-20 110 -31 3 -3 22 -9 43 -13 20 -4 37 -11 37 -16 0 -19 38 -28 163 -39 70
-7 134 -14 141 -17 8 -3 30 11 50 30 35 36 35 36 126 36 49 0 90 -4 90 -8 0
-4 35 -8 78 -7 42 0 89 -2 104 -6 20 -5 42 0 78 17 57 27 70 29 116 12 26 -9
48 -9 101 1 92 17 135 31 156 49 10 9 17 11 17 4 0 -11 11 -11 87 4 29 5 31 4
26 -15 -6 -24 4 -26 30 -7 13 10 27 12 51 5 36 -10 86 2 86 21 0 5 7 10 15 10
8 0 15 -5 15 -11 0 -6 7 -9 15 -6 8 4 17 1 21 -4 3 -6 15 -9 25 -6 13 4 19 0
19 -13 0 -19 23 -43 33 -34 3 3 31 7 62 9 55 3 117 -13 130 -35 3 -5 21 -10
40 -10 27 0 37 -6 55 -35 11 -19 34 -45 50 -58 21 -18 27 -31 23 -46 -5 -19
-3 -21 20 -16 26 7 43 -7 32 -26 -12 -19 -13 -109 -1 -110 6 -1 -2 -4 -19 -8
-31 -7 -47 -38 -25 -51 9 -6 7 -13 -9 -29 -12 -12 -19 -26 -16 -30 2 -5 -2
-11 -10 -15 -8 -3 -15 -2 -15 2 0 16 -106 -4 -135 -25 -16 -12 -51 -24 -77
-28 -27 -3 -48 -10 -48 -14 0 -4 -10 -20 -23 -35 -17 -20 -26 -23 -34 -15 -9
9 -20 5 -43 -15 -17 -14 -42 -26 -56 -26 -13 0 -24 -4 -24 -10 0 -5 -6 -10
-13 -10 -18 0 -38 -36 -31 -55 5 -11 0 -18 -15 -22 -11 -3 -21 -9 -21 -13 0
-5 -13 -11 -29 -15 -31 -7 -51 -35 -26 -35 8 0 15 -9 15 -20 0 -27 -4 -26 -51
12 l-39 31 -22 -25 c-25 -28 -68 -46 -68 -28 0 6 -8 5 -22 -4 -13 -8 -34 -17
-46 -21 -43 -13 -61 -40 -57 -85 2 -23 9 -48 16 -56 18 -22 -3 -39 -30 -25
-17 10 -21 9 -21 -4 0 -12 -6 -15 -19 -10 -24 7 -73 -4 -65 -16 3 -5 15 -9 27
-10 l22 0 -21 -9 c-12 -5 -25 -13 -28 -19 -4 -6 -13 -7 -22 -4 -19 7 -94 -26
-114 -50 -8 -10 -28 -19 -43 -20 -15 -1 -31 -7 -35 -14 -4 -6 -16 -11 -26 -10
-10 1 -21 -4 -23 -11 -3 -7 -1 -12 4 -11 15 2 53 -13 53 -22 0 -14 -16 -11
-30 6 -10 12 -17 11 -48 -9 -21 -13 -42 -21 -49 -19 -6 2 -14 -1 -18 -6 -3 -6
-14 -11 -25 -11 -10 0 -20 -7 -24 -15 -3 -8 -16 -15 -30 -15 -14 0 -28 -5 -32
-11 -4 -6 -19 -9 -36 -5 -18 3 -27 2 -23 -4 10 -16 -26 -25 -36 -9 -8 12 -10
12 -18 0 -5 -7 -19 -14 -32 -15 -17 -1 -25 -8 -27 -24 -3 -19 -8 -23 -24 -18
-12 3 -32 -3 -47 -13 -14 -10 -44 -24 -66 -32 -22 -7 -47 -21 -55 -30 -24 -26
-45 -29 -80 -8 -43 27 -99 18 -143 -22 -17 -16 -40 -32 -49 -35 -10 -3 -18
-10 -18 -16 0 -6 -28 -8 -76 -5 -64 5 -75 3 -70 -10 8 -20 -1 -33 -19 -26 -18
6 -20 29 -2 36 7 3 6 6 -5 6 -9 1 -20 -4 -24 -10 -3 -6 -17 -9 -31 -6 -20 4
-24 1 -20 -14 3 -12 0 -19 -8 -19 -8 0 -18 -8 -24 -17 -8 -15 -13 -16 -30 -5
-12 7 -21 9 -20 5 1 -5 1 -19 0 -33 -2 -25 -2 -25 -11 -2 -6 12 -18 22 -30 22
-16 0 -20 -6 -20 -35 0 -22 -6 -38 -15 -41 -8 -4 -15 -12 -15 -20 0 -8 -10
-14 -25 -14 -14 0 -25 -5 -25 -11 0 -6 -9 -9 -20 -6 -14 4 -23 -3 -32 -24 -14
-32 -29 -36 -52 -14 -8 8 -22 15 -31 15 -8 0 -21 11 -27 25 -6 14 -17 25 -23
25 -19 0 -25 -62 -8 -78 10 -10 11 -18 3 -27 -15 -19 -7 -76 17 -117 11 -19
23 -50 27 -69 3 -19 20 -53 36 -77 35 -52 51 -122 49 -217 -1 -39 3 -80 8 -90
6 -11 13 -60 16 -110 6 -79 5 -88 -8 -71 -7 10 -19 41 -25 69 -6 29 -17 62
-26 74 -8 13 -12 33 -9 46 4 15 -4 37 -24 67 -16 25 -37 65 -47 90 -10 25 -24
50 -31 55 -10 8 -10 19 -2 52 6 24 15 40 20 37 5 -3 9 0 9 5 0 6 -6 11 -12 11
-7 1 -22 15 -33 33 -15 24 -28 32 -50 33 -17 0 -38 4 -48 8 -10 5 -23 3 -32
-4 -8 -7 -15 -10 -15 -6 0 3 0 8 0 11 0 3 3 5 7 4 3 0 11 7 16 17 7 13 7 19
-2 22 -7 2 -17 10 -24 17 -6 6 -19 10 -29 7 -14 -3 -18 2 -18 27 0 17 -4 31
-10 31 -5 0 -10 6 -10 14 0 11 -40 46 -53 46 -3 0 -7 -14 -11 -32 -3 -17 -9
-29 -12 -26 -3 3 -27 -16 -54 -43 -32 -32 -57 -49 -74 -49 -14 0 -28 -4 -31
-10 -8 -13 -202 -13 -210 0 -3 5 -17 10 -31 10 -14 0 -23 -4 -19 -10 3 -5 12
-7 19 -4 8 3 17 1 21 -5 13 -23 -28 -25 -46 -3 -9 12 -24 22 -33 22 -8 0 -18
5 -22 11 -3 6 -16 8 -28 4 -57 -17 -141 -22 -160 -9 -13 9 -24 10 -31 4 -14
-12 -37 10 -33 31 4 19 -80 30 -97 12 -8 -7 -18 -13 -22 -12 -4 1 -10 0 -13
-1 -3 -1 -47 -3 -98 -5 -66 -3 -97 -9 -108 -20 -17 -16 -48 -7 -57 17 -3 8 -6
6 -6 -4 -1 -12 -9 -18 -23 -18 -16 0 -19 -3 -11 -11 14 -14 6 -39 -12 -39 -15
0 -28 27 -20 41 13 20 -91 -22 -105 -43 -15 -22 -29 -37 -67 -68 -20 -17 -174
-23 -185 -7 -4 7 -17 6 -36 -2 -27 -11 -71 -9 -124 6 -13 3 -16 0 -12 -11 8
-21 -29 -22 -50 -1 -8 8 -20 15 -26 15 -6 0 -8 5 -4 12 5 8 2 9 -10 5 -10 -4
-23 -7 -29 -7 -7 0 -6 -4 3 -10 11 -7 5 -10 -25 -11 -68 -2 -110 2 -119 12
-15 14 -37 11 -57 -7 -12 -11 -44 -16 -124 -18 -83 -2 -104 0 -91 9 14 11 14
14 -4 30 -18 17 -20 17 -26 1 -5 -13 -17 -17 -48 -15 -55 3 -136 -11 -136 -23
0 -5 -9 -7 -20 -3 -11 3 -25 3 -32 -2 -7 -4 -20 -8 -28 -8 -19 -1 -73 25 -82
39 -4 6 -11 7 -15 2 -4 -5 -2 -11 5 -13 22 -8 12 -23 -16 -23 -33 0 -75 28
-54 36 6 3 9 10 6 15 -4 6 -11 6 -19 -1 -14 -11 -46 -9 -79 5 -13 6 -21 3 -28
-8 -15 -27 -30 -19 -26 13 2 19 -3 34 -12 40 -25 16 -116 12 -130 -5 -7 -8 -9
-15 -4 -15 14 -1 -28 -30 -42 -30 -7 0 -20 7 -29 16 -13 14 -18 14 -32 2 -13
-10 -17 -10 -20 0 -5 14 -59 16 -68 2 -11 -17 -35 -12 -28 7 5 12 2 15 -9 10
-11 -4 -18 1 -21 14 -6 21 -41 26 -53 8 -4 -7 -47 -10 -131 -8 -98 3 -126 1
-132 -10 -8 -12 -14 -10 -36 8 -15 11 -38 21 -51 21 -12 0 -26 5 -29 10 -3 6
-17 10 -31 10 -14 0 -22 -4 -19 -10 3 -5 -1 -10 -9 -10 -8 0 -13 6 -11 13 3 7
-10 21 -31 32 -20 11 -31 21 -24 23 9 3 9 7 -1 13 -9 5 -17 1 -25 -13 -11 -21
-12 -21 -29 11 -16 32 -17 32 -37 14 -15 -13 -22 -15 -25 -5 -3 6 -11 12 -19
12 -8 0 -14 5 -14 10 0 6 -9 10 -21 10 -11 0 -17 5 -14 10 3 6 1 10 -4 10 -6
0 -11 9 -11 19 0 11 -6 22 -12 24 -20 8 13 28 35 23 11 -3 16 -2 13 1 -3 4 4
18 16 31 l23 25 -44 -7 c-41 -6 -43 -5 -38 14 3 14 -2 29 -13 40 -17 17 -20
17 -31 3 -7 -8 -13 -23 -14 -34 -2 -19 -32 -59 -46 -59 -4 0 -9 12 -11 28 -3
23 -8 27 -40 30 -36 3 -38 5 -38 39 0 24 7 41 23 54 24 20 47 25 47 9 0 -17
87 -12 94 5 4 12 11 11 42 -7 23 -13 57 -22 91 -24 33 -1 62 -9 72 -18 10 -9
23 -16 30 -16 6 0 14 -7 17 -15 7 -18 32 -13 133 26 40 16 80 29 88 29 8 0 26
9 40 20 14 11 34 20 45 20 10 0 36 9 56 20 86 45 153 70 191 70 22 0 43 4 46
10 7 11 92 50 110 50 7 0 18 -7 25 -16 26 -31 230 -2 286 41 26 20 39 23 70
18 22 -4 44 -13 51 -22 6 -9 13 -14 15 -11 20 26 38 63 38 78 0 10 15 32 33
49 24 24 47 34 96 43 35 6 69 9 77 6 8 -3 22 3 31 13 10 10 34 22 53 26 19 4
51 20 71 36 l36 28 12 -27 13 -26 19 24 c10 14 19 21 19 16 0 -5 18 16 40 47
33 46 47 57 78 63 20 4 49 15 63 25 14 10 46 21 70 25 24 4 53 11 63 17 28 14
136 18 169 5 31 -12 77 5 77 28 0 15 65 41 122 50 24 4 50 12 58 19 8 6 31 18
50 25 19 7 60 25 90 40 31 15 74 28 99 29 25 0 47 5 50 10 3 4 26 18 51 30 25
11 63 34 85 50 27 20 65 34 125 46 47 9 99 21 115 25 120 33 152 45 168 61 10
11 14 19 10 19 -4 1 2 6 14 13 12 7 22 16 22 21 0 6 8 11 17 12 33 5 76 53 79
89 1 11 5 32 9 46 5 18 3 31 -9 42 -9 9 -17 30 -18 47 -1 16 -5 30 -9 30 -5 0
-8 10 -8 23 0 29 -19 54 -44 59 -10 1 -24 12 -30 22 -6 11 -19 28 -28 38 -17
17 -23 41 -20 79 1 8 -19 34 -42 57 -42 41 -46 42 -82 33 -22 -5 -46 -12 -55
-15 -11 -5 -26 2 -43 17 -15 14 -40 30 -56 37 -17 7 -30 16 -30 21 0 5 -12 9
-27 9 -39 0 -73 11 -73 22 0 13 -39 46 -70 60 -30 13 -257 22 -264 10 -3 -5
-44 -2 -93 5 -48 8 -148 15 -221 17 -82 2 -137 7 -144 14 -9 9 -16 8 -28 -3
-11 -10 -46 -16 -111 -18 -67 -3 -107 -10 -139 -25 -25 -11 -72 -25 -105 -31
-66 -11 -333 -15 -405 -5 -25 3 -65 0 -90 -6 -25 -7 -70 -13 -101 -14 -40 -1
-63 -7 -78 -20 -16 -15 -27 -17 -58 -10 -21 5 -63 9 -93 10 -30 1 -80 5 -110
8 -78 9 -75 10 -185 -15 -55 -12 -124 -21 -154 -21 -49 1 -53 0 -48 -18 7 -28
-21 -41 -105 -46 -52 -3 -84 2 -126 16 -67 24 -86 25 -101 6 -7 -8 -27 -17
-45 -20 -18 -4 -41 -15 -50 -25 -18 -20 -61 -17 -166 12 -30 9 -112 20 -182
26 -89 7 -135 15 -153 27 -18 12 -37 15 -66 11 -23 -3 -61 0 -85 8 -23 7 -46
10 -49 7 -3 -3 -47 -6 -98 -7 -78 0 -98 -4 -128 -22 -45 -28 -75 -29 -89 -3
-13 24 -26 25 -46 6 -9 -10 -30 -14 -60 -12 -35 2 -47 -1 -51 -13 -6 -17 -93
-101 -105 -101 -5 0 -8 -7 -8 -15 0 -16 -21 -29 -62 -39 -24 -6 -27 -3 -30 26
-3 29 -7 33 -35 36 -17 2 -37 10 -43 18 -17 20 -30 18 -30 -5 0 -23 -86 -49
-103 -32 -6 6 -26 11 -44 11 -22 0 -43 10 -66 30 -19 17 -48 33 -64 36 -16 3
-33 15 -38 27 -7 16 -20 23 -47 25 -20 2 -42 10 -48 18 -7 8 -21 14 -32 14
-10 0 -17 4 -14 9 4 5 -4 7 -15 4 -13 -4 -26 0 -33 9 -15 19 -44 29 -51 18 -8
-12 -53 -11 -82 3 -40 18 -53 3 -49 -57 2 -30 7 -60 11 -66 4 -7 -6 -26 -23
-43 -16 -18 -33 -48 -36 -69 -4 -21 -10 -38 -14 -39 -27 -3 -46 -9 -55 -18 -6
-6 -19 -11 -29 -11 -10 0 -27 -5 -37 -12 -29 -18 -48 4 -55 66 -7 56 -40 111
-65 111 -23 0 -25 26 -3 32 21 5 85 92 97 131 3 12 15 27 25 32 11 6 22 26 25
48 10 60 20 77 49 80 14 1 26 -3 26 -8 0 -16 53 -11 79 7 21 14 25 14 35 1 10
-13 32 -25 61 -34 55 -17 163 -44 176 -44 8 0 36 19 61 43 34 32 50 56 58 89
11 43 10 50 -17 98 -27 50 -28 51 -9 66 36 26 96 8 96 -29 0 -8 14 -22 31 -31
29 -14 33 -14 69 9 22 14 45 22 53 19 9 -3 20 9 31 35 11 23 27 42 40 45 11 3
35 24 51 47 17 23 44 48 62 55 30 13 63 48 63 67 0 4 -8 4 -17 -1 -10 -5 -34
-9 -53 -11 -19 -1 -37 -6 -40 -12 -4 -5 -12 2 -18 16 -6 14 -18 25 -27 25 -34
0 -8 67 30 74 32 7 67 24 110 56 22 16 51 30 65 30 24 0 41 8 148 64 24 12 49
33 55 47 10 19 22 25 62 29 28 3 67 14 87 24 24 11 47 16 66 11 23 -5 35 0 62
25 30 28 30 30 10 30 -13 0 -20 5 -17 13 5 13 9 13 42 3 15 -4 24 2 37 24 9
17 24 30 33 30 9 0 13 5 10 11 -9 13 35 61 50 56 5 -3 21 0 35 6 14 5 30 10
35 11 20 2 101 46 129 71 17 15 37 23 46 20 10 -3 23 1 30 10 7 8 21 15 30 15
28 0 119 49 133 71 6 10 22 19 34 19 20 0 22 4 17 30 -7 31 11 43 22 15 4 -8
12 -15 20 -15 17 0 110 95 130 133 8 15 19 27 24 27 6 0 10 7 10 15 0 8 9 15
20 15 11 0 20 -5 20 -10 0 -6 18 3 39 18 22 16 60 37 85 46 25 10 46 21 46 25
0 4 11 13 25 19 21 10 25 9 25 -3 0 -29 34 -9 35 20 0 6 8 10 17 10 9 0 27 10
40 23 14 12 36 22 51 22 14 0 29 5 32 10 3 6 19 10 36 10 18 0 29 5 29 14 0
17 33 31 38 16 2 -5 13 -15 24 -21 15 -8 19 -8 14 0 -4 7 1 11 13 11 12 0 21
5 21 10 0 6 14 10 30 10 17 0 30 5 30 10 0 6 -7 10 -15 10 -18 0 -19 14 -2 28
14 12 43 0 34 -15 -8 -12 34 -15 58 -3 11 5 36 13 55 18 21 5 40 17 46 31 8
16 14 19 19 11 5 -8 12 -2 21 19 14 33 31 40 40 16 4 -8 11 -15 16 -15 6 0 5
6 -2 15 -13 16 -13 15 52 20 10 0 30 13 45 27 31 30 93 47 140 41 25 -4 31 -1
36 18 5 20 8 21 23 8 15 -12 18 -12 22 0 2 7 13 22 23 32 11 11 19 24 19 29 0
6 20 30 44 54 24 24 46 53 48 66 2 13 11 24 21 26 14 2 18 -2 14 -17 -6 -22
11 -16 30 12 7 9 24 20 38 23 14 4 25 14 25 22 0 12 6 15 21 11 28 -7 49 2 49
21 0 12 3 13 11 5 9 -9 19 -4 40 19 16 16 29 34 29 38 0 4 7 13 15 20 8 7 12
16 10 21 -9 14 47 59 60 49 8 -7 20 0 38 18 18 19 39 29 63 30 21 2 49 13 64
26 15 12 41 28 58 35 21 9 33 22 37 42 8 34 16 36 39 10 21 -23 96 -33 96 -14
0 14 9 16 52 13 16 -1 35 5 43 13 10 11 27 14 53 10 24 -3 42 -1 46 6 4 6 16
11 26 11 10 0 21 8 24 18 7 20 91 111 121 130 11 7 28 15 38 19 11 3 17 14 16
27 -1 11 1 28 4 36 3 8 11 32 17 53 11 37 23 46 35 27 3 -5 14 -14 24 -20 17
-9 18 -4 17 63 -1 90 27 192 51 183 23 -9 73 16 78 39 2 11 7 37 10 57 7 46
26 42 48 -10z m3717 44 c0 -11 -19 -15 -25 -6 -3 5 1 10 9 10 9 0 16 -2 16 -4z
m1115 -26 c3 -5 1 -10 -4 -10 -6 0 -11 5 -11 10 0 6 2 10 4 10 3 0 8 -4 11
-10z m-3355 -38 c-1 -18 -19 -34 -36 -30 -22 4 -31 37 -13 49 13 8 49 -6 49
-19z m455 -2 c3 -5 -1 -10 -10 -10 -9 0 -13 5 -10 10 3 6 8 10 10 10 2 0 7 -4
10 -10z m605 0 c0 -5 -7 -10 -15 -10 -8 0 -15 5 -15 10 0 6 7 10 15 10 8 0 15
-4 15 -10z m1090 -37 c0 -17 -19 -37 -27 -29 -4 5 -2 11 5 13 6 3 10 9 6 14
-3 5 0 9 5 9 6 0 11 -3 11 -7z m-2930 -69 c0 -8 -5 -12 -10 -9 -6 4 -8 11 -5
16 9 14 15 11 15 -7z m2685 -4 c3 -5 1 -10 -4 -10 -6 0 -11 5 -11 10 0 6 2 10
4 10 3 0 8 -4 11 -10z m-1805 -10 c0 -5 -9 -10 -21 -10 -11 0 -17 5 -14 10 3
6 13 10 21 10 8 0 14 -4 14 -10z m170 -10 c0 -5 -4 -10 -10 -10 -5 0 -10 5
-10 10 0 6 5 10 10 10 6 0 10 -4 10 -10z m750 -10 c0 -5 -7 -10 -15 -10 -8 0
-15 5 -15 10 0 6 7 10 15 10 8 0 15 -4 15 -10z m440 0 c0 -5 -7 -10 -15 -10
-8 0 -15 5 -15 10 0 6 7 10 15 10 8 0 15 -4 15 -10z m-1870 -10 c0 -5 -9 -10
-21 -10 -11 0 -17 5 -14 10 3 6 13 10 21 10 8 0 14 -4 14 -10z m1944 -5 c-4
-8 -10 -12 -15 -9 -11 6 -2 24 11 24 5 0 7 -7 4 -15z m286 5 c0 -5 -4 -10 -10
-10 -5 0 -10 5 -10 10 0 6 5 10 10 10 6 0 10 -4 10 -10z m-1605 -50 c3 -5 -1
-10 -10 -10 -9 0 -13 5 -10 10 3 6 8 10 10 10 2 0 7 -4 10 -10z m-2815 -20 c0
-5 -4 -10 -10 -10 -5 0 -10 5 -10 10 0 6 5 10 10 10 6 0 10 -4 10 -10z m4380
-11 c0 -18 -2 -19 -15 -9 -8 7 -15 16 -15 21 0 5 7 9 15 9 9 0 15 -9 15 -21z
m-1110 -9 c0 -5 -7 -10 -15 -10 -8 0 -15 5 -15 10 0 6 7 10 15 10 8 0 15 -4
15 -10z m2805 -49 c-3 -6 -11 -11 -17 -11 -6 0 -6 6 2 15 14 17 26 13 15 -4z
m-6333 -53 c-7 -7 -12 -8 -12 -2 0 14 12 26 19 19 2 -3 -1 -11 -7 -17z m-252
-28 c0 -5 -2 -10 -4 -10 -3 0 -8 5 -11 10 -3 6 -1 10 4 10 6 0 11 -4 11 -10z
m7540 -16 c0 -9 13 -21 29 -27 24 -9 48 -43 38 -54 -2 -1 -36 1 -75 4 l-73 6
3 31 c2 21 11 35 28 43 34 17 50 16 50 -3z m-1533 -16 c-3 -8 -6 -5 -6 6 -1
11 2 17 5 13 3 -3 4 -12 1 -19z m1402 -78 c36 0 57 -7 86 -27 65 -48 97 -84
85 -98 -12 -14 -3 -46 17 -58 18 -11 16 -32 -3 -48 -9 -7 -13 -21 -10 -35 3
-12 -3 -43 -15 -68 -11 -27 -17 -52 -12 -59 4 -6 13 -25 18 -42 13 -37 -6 -81
-41 -97 -35 -16 -24 -33 21 -33 61 0 57 -46 -5 -60 -16 -4 -28 -12 -27 -18 1
-6 -18 -16 -44 -21 -34 -6 -52 -5 -73 6 l-28 15 36 19 c21 10 38 24 39 29 1 6
-21 13 -49 16 -56 7 -144 53 -144 75 0 19 -37 36 -62 28 -26 -8 -38 10 -38 58
0 20 -5 49 -10 64 -7 18 -7 30 1 40 6 7 7 19 3 26 -5 10 -4 10 5 2 7 -7 21 -9
32 -7 30 8 25 66 -11 120 -16 24 -30 50 -30 57 0 6 -5 17 -12 24 -22 22 5 36
45 23 31 -11 41 -9 76 9 23 11 41 28 41 36 0 10 6 14 15 11 8 -4 17 -2 20 3 3
5 -2 10 -10 12 -14 3 -13 6 2 27 l17 25 9 -27 c8 -24 14 -27 56 -27z m-989 15
c-7 -9 -15 -13 -19 -10 -3 3 1 10 9 15 21 14 24 12 10 -5z m1260 -25 c-20 -5
-39 -5 -44 1 -6 5 7 9 35 8 l44 -1 -35 -8z m-7680 -60 c0 -5 -2 -10 -4 -10 -3
0 -8 5 -11 10 -3 6 -1 10 4 10 6 0 11 -4 11 -10z m50 0 c0 -5 -5 -10 -11 -10
-5 0 -7 5 -4 10 3 6 8 10 11 10 2 0 4 -4 4 -10z m6830 0 c0 -5 -5 -10 -11 -10
-5 0 -7 5 -4 10 3 6 8 10 11 10 2 0 4 -4 4 -10z m-6240 -10 c0 -5 -4 -10 -10
-10 -5 0 -10 5 -10 10 0 6 5 10 10 10 6 0 10 -4 10 -10z m-135 -30 c-3 -5 -10
-10 -16 -10 -5 0 -9 5 -9 10 0 6 7 10 16 10 8 0 12 -4 9 -10z m6345 -39 c6
-16 20 -37 30 -46 10 -9 16 -23 14 -30 -6 -16 27 -28 76 -29 30 -1 35 -5 44
-34 7 -26 6 -36 -8 -50 -13 -14 -20 -14 -36 -4 -16 10 -20 10 -20 -2 0 -8 5
-16 11 -18 17 -6 1 -32 -31 -50 -17 -10 -29 -21 -28 -26 2 -5 -13 -24 -32 -41
-34 -30 -38 -30 -100 -24 -36 3 -67 7 -69 9 -2 2 10 20 27 41 18 21 37 45 44
53 14 17 21 100 13 137 -4 15 -10 20 -21 16 -10 -4 -17 1 -21 15 -5 20 -10 21
-90 15 -71 -5 -85 -4 -81 8 3 10 25 15 75 17 66 3 71 5 77 27 4 16 11 22 21
19 8 -4 15 -1 15 4 0 9 14 14 66 21 6 0 17 -12 24 -28z m289 -101 c0 -10 -6
-6 -19 10 -11 14 -19 36 -19 50 0 23 1 23 19 -10 11 -19 19 -42 19 -50z m1302
27 c9 -7 19 -24 23 -40 5 -23 1 -33 -29 -62 -19 -20 -35 -44 -35 -54 0 -9 -15
-34 -33 -54 -28 -31 -39 -37 -74 -37 -38 0 -43 3 -60 40 -10 22 -24 40 -31 40
-36 0 -18 60 18 60 9 0 34 17 55 37 80 78 129 99 166 70z m-7943 -69 c-6 -18
-28 -21 -28 -4 0 9 7 16 16 16 9 0 14 -5 12 -12z m5999 -234 c53 -35 84 -117
41 -106 -19 4 -108 85 -108 97 0 12 14 35 21 35 4 0 25 -12 46 -26z m-6622
-144 c-19 -21 -45 -27 -45 -10 0 6 9 10 20 10 11 0 20 5 20 10 0 6 5 10 12 10
6 0 3 -9 -7 -20z m-305 -20 c0 -5 -4 -10 -10 -10 -5 0 -10 5 -10 10 0 6 5 10
10 10 6 0 10 -4 10 -10z m-835 -40 c3 -5 1 -10 -4 -10 -6 0 -11 5 -11 10 0 6
2 10 4 10 3 0 8 -4 11 -10z m255 -50 c0 -5 -4 -10 -10 -10 -5 0 -10 5 -10 10
0 6 5 10 10 10 6 0 10 -4 10 -10z m445 -120 c3 -6 -1 -13 -10 -16 -19 -8 -30
0 -20 15 8 14 22 14 30 1z m115 -10 c0 -5 -4 -10 -10 -10 -5 0 -10 5 -10 10 0
6 5 10 10 10 6 0 10 -4 10 -10z m-1060 -60 c0 -5 -2 -10 -4 -10 -3 0 -8 5 -11
10 -3 6 -1 10 4 10 6 0 11 -4 11 -10z m7980 -5 c0 -9 -9 -15 -21 -15 -18 0
-19 2 -9 15 7 8 16 15 21 15 5 0 9 -7 9 -15z m-9830 -9 c0 -8 -4 -17 -9 -21
-12 -7 -24 12 -16 25 9 15 25 12 25 -4z m9700 10 c0 -11 -19 -15 -25 -6 -3 5
1 10 9 10 9 0 16 -2 16 -4z m-7760 -56 c0 -5 -4 -10 -10 -10 -5 0 -10 5 -10
10 0 6 5 10 10 10 6 0 10 -4 10 -10z m410 -75 c0 -8 -7 -15 -15 -15 -8 0 -15
7 -15 15 0 8 7 15 15 15 8 0 15 -7 15 -15z m-110 -71 c0 -8 -7 -14 -15 -14
-15 0 -21 21 -9 33 10 9 24 -2 24 -19z m-80 -4 c0 -5 -4 -10 -10 -10 -5 0 -10
5 -10 10 0 6 5 10 10 10 6 0 10 -4 10 -10z m-210 -34 c0 -3 -4 -8 -10 -11 -5
-3 -10 -1 -10 4 0 6 5 11 10 11 6 0 10 -2 10 -4z m-40 -26 c0 -5 -5 -10 -11
-10 -5 0 -7 5 -4 10 3 6 8 10 11 10 2 0 4 -4 4 -10z m-20 -60 c0 -5 -5 -10
-11 -10 -5 0 -7 5 -4 10 3 6 8 10 11 10 2 0 4 -4 4 -10z m-366 -41 c-3 -5 -10
-7 -15 -3 -5 3 -7 10 -3 15 3 5 10 7 15 3 5 -3 7 -10 3 -15z m456 1 c0 -5 -2
-10 -4 -10 -3 0 -8 5 -11 10 -3 6 -1 10 4 10 6 0 11 -4 11 -10z m-1958 -22
c-7 -7 -12 -8 -12 -2 0 14 12 26 19 19 2 -3 -1 -11 -7 -17z m308 -358 c0 -5
-5 -10 -11 -10 -5 0 -7 5 -4 10 3 6 8 10 11 10 2 0 4 -4 4 -10z m860 -20 c0
-5 -4 -10 -10 -10 -5 0 -10 5 -10 10 0 6 5 10 10 10 6 0 10 -4 10 -10z m10325
-20 c3 -5 1 -10 -4 -10 -6 0 -11 5 -11 10 0 6 2 10 4 10 3 0 8 -4 11 -10z
m-10605 -30 c0 -5 -7 -10 -15 -10 -8 0 -15 5 -15 10 0 6 7 10 15 10 8 0 15 -4
15 -10z m330 -14 c0 -3 -4 -8 -10 -11 -5 -3 -10 -1 -10 4 0 6 5 11 10 11 6 0
10 -2 10 -4z m-900 -16 c0 -5 -2 -10 -4 -10 -3 0 -8 5 -11 10 -3 6 -1 10 4 10
6 0 11 -4 11 -10z m11605 -100 c3 -5 1 -10 -4 -10 -6 0 -11 5 -11 10 0 6 2 10
4 10 3 0 8 -4 11 -10z m-11425 -30 c0 -5 -7 -10 -15 -10 -8 0 -15 5 -15 10 0
6 7 10 15 10 8 0 15 -4 15 -10z m9897 -36 c-3 -3 -12 -4 -19 -1 -8 3 -5 6 6 6
11 1 17 -2 13 -5z m3 -120 c0 -8 -7 -14 -15 -14 -17 0 -18 2 -9 24 7 18 24 12
24 -10z m420 -4 c0 -5 -7 -10 -15 -10 -8 0 -15 5 -15 10 0 6 7 10 15 10 8 0
15 -4 15 -10z m390 -60 c0 -5 -4 -10 -10 -10 -5 0 -10 5 -10 10 0 6 5 10 10
10 6 0 10 -4 10 -10z m-340 -108 c0 -13 -12 -22 -22 -16 -10 6 -1 24 13 24 5
0 9 -4 9 -8z m-200 -72 c0 -5 -2 -10 -4 -10 -3 0 -8 5 -11 10 -3 6 -1 10 4 10
6 0 11 -4 11 -10z m-10780 -30 c0 -5 -4 -10 -10 -10 -5 0 -10 5 -10 10 0 6 5
10 10 10 6 0 10 -4 10 -10z m10880 0 c0 -5 -4 -10 -10 -10 -5 0 -10 5 -10 10
0 6 5 10 10 10 6 0 10 -4 10 -10z m-730 -150 c0 -5 -2 -10 -4 -10 -3 0 -8 5
-11 10 -3 6 -1 10 4 10 6 0 11 -4 11 -10z m-100 -71 c0 -5 -7 -9 -15 -9 -15 0
-20 12 -9 23 8 8 24 -1 24 -14z m420 11 c0 -5 -4 -10 -10 -10 -5 0 -10 5 -10
10 0 6 5 10 10 10 6 0 10 -4 10 -10z m850 0 c0 -5 -4 -10 -10 -10 -5 0 -10 5
-10 10 0 6 5 10 10 10 6 0 10 -4 10 -10z m-11320 -21 c0 -5 -7 -9 -15 -9 -15
0 -20 12 -9 23 8 8 24 -1 24 -14z m275 -19 c-4 -12 -9 -19 -12 -17 -3 3 -2 15
2 27 4 12 9 19 12 17 3 -3 2 -15 -2 -27z m-405 10 c0 -5 -4 -10 -10 -10 -5 0
-10 5 -10 10 0 6 5 10 10 10 6 0 10 -4 10 -10z m-430 -44 c0 -3 -4 -8 -10 -11
-5 -3 -10 -1 -10 4 0 6 5 11 10 11 6 0 10 -2 10 -4z m11010 -16 c0 -5 -4 -10
-10 -10 -5 0 -10 5 -10 10 0 6 5 10 10 10 6 0 10 -4 10 -10z m-525 -70 c-3 -5
-10 -10 -16 -10 -5 0 -9 5 -9 10 0 6 7 10 16 10 8 0 12 -4 9 -10z m1045 0 c0
-5 -4 -10 -10 -10 -5 0 -10 5 -10 10 0 6 5 10 10 10 6 0 10 -4 10 -10z m-970
-50 c0 -5 -5 -12 -11 -16 -14 -8 -33 11 -25 25 7 11 36 4 36 -9z m147 -67 c-3
-3 -13 1 -21 10 -8 8 -12 17 -9 20 3 3 12 -1 20 -9 9 -8 13 -18 10 -21z m963
33 c0 -3 -4 -8 -10 -11 -5 -3 -10 -1 -10 4 0 6 5 11 10 11 6 0 10 -2 10 -4z
m-1102 -18 c-6 -18 -28 -21 -28 -4 0 9 7 16 16 16 9 0 14 -5 12 -12z m317 -18
c3 -5 1 -10 -4 -10 -6 0 -11 5 -11 10 0 6 2 10 4 10 3 0 8 -4 11 -10z m545
-10 c0 -5 -4 -10 -10 -10 -5 0 -10 5 -10 10 0 6 5 10 10 10 6 0 10 -4 10 -10z
m-840 -10 c0 -5 -4 -10 -10 -10 -5 0 -10 5 -10 10 0 6 5 10 10 10 6 0 10 -4
10 -10z m64 -29 c7 -11 -22 -23 -35 -15 -5 3 -7 10 -4 15 8 12 32 12 39 0z
m-144 -41 c0 -5 -4 -10 -10 -10 -5 0 -10 5 -10 10 0 6 5 10 10 10 6 0 10 -4
10 -10z m56 -37 c-10 -10 -19 5 -10 18 6 11 8 11 12 0 2 -7 1 -15 -2 -18z
m129 -3 c3 -5 -1 -10 -10 -10 -9 0 -13 5 -10 10 3 6 8 10 10 10 2 0 7 -4 10
-10z m-375 -30 c0 -5 -4 -10 -9 -10 -6 0 -13 5 -16 10 -3 6 1 10 9 10 9 0 16
-4 16 -10z m184 -8 c8 -14 -34 -44 -52 -37 -14 5 -13 9 8 25 28 22 36 24 44
12z m-9176 -45 c2 -10 -3 -17 -11 -17 -16 0 -30 24 -19 34 10 10 27 1 30 -17z
m9682 -18 c0 -14 -17 -10 -23 5 -4 10 -1 13 9 9 7 -3 14 -9 14 -14z m-462 -41
c-6 -18 -28 -21 -28 -4 0 9 7 16 16 16 9 0 14 -5 12 -12z m32 -18 c0 -5 -4
-10 -10 -10 -5 0 -10 5 -10 10 0 6 5 10 10 10 6 0 10 -4 10 -10z m-460 -55 c0
-8 -7 -15 -15 -15 -8 0 -15 7 -15 15 0 8 7 15 15 15 8 0 15 -7 15 -15z m90
-11 c0 -8 -4 -12 -10 -9 -5 3 -10 10 -10 16 0 5 5 9 10 9 6 0 10 -7 10 -16z
m-170 -18 c0 -30 -36 -42 -50 -17 -11 21 5 41 32 41 12 0 18 -8 18 -24z m-192
-16 c1 -16 -2 -30 -7 -30 -11 0 -19 30 -14 48 8 22 19 13 21 -18z m209 -197
c-8 -7 -37 9 -31 19 3 5 12 4 20 -3 8 -6 13 -14 11 -16z m2231 -14 c-2 -6 -8
-10 -13 -10 -5 0 -11 4 -13 10 -2 6 4 11 13 11 9 0 15 -5 13 -11z m-2083 -9
c3 -5 -1 -10 -9 -10 -9 0 -16 5 -16 10 0 6 4 10 9 10 6 0 13 -4 16 -10z m585
0 c0 -5 -4 -10 -10 -10 -5 0 -10 5 -10 10 0 6 5 10 10 10 6 0 10 -4 10 -10z
m-830 -15 c0 -8 -7 -15 -15 -15 -16 0 -20 12 -8 23 11 12 23 8 23 -8z m690 -5
c0 -5 -4 -10 -10 -10 -5 0 -10 5 -10 10 0 6 5 10 10 10 6 0 10 -4 10 -10z
m-1050 -45 c0 -8 -7 -15 -15 -15 -16 0 -20 12 -8 23 11 12 23 8 23 -8z m2770
-10 c0 -8 -7 -15 -15 -15 -16 0 -20 12 -8 23 11 12 23 8 23 -8z m-2760 -105
c0 -5 -4 -10 -10 -10 -5 0 -10 5 -10 10 0 6 5 10 10 10 6 0 10 -4 10 -10z
m-9060 -24 c0 -21 -17 -29 -46 -22 -38 10 -30 36 11 36 24 0 35 -5 35 -14z
m8784 -21 c-4 -8 -10 -15 -15 -15 -5 0 -9 7 -9 15 0 8 7 15 15 15 9 0 12 -6 9
-15z m-8728 -84 c-9 -10 -16 -23 -16 -29 0 -13 -22 -15 -57 -6 -31 9 -29 24 3
24 16 0 36 11 52 30 21 24 28 27 30 15 2 -9 -3 -24 -12 -34z m9434 39 c0 -5
-7 -10 -15 -10 -8 0 -15 5 -15 10 0 6 7 10 15 10 8 0 15 -4 15 -10z m-370 -15
c0 -8 -4 -15 -9 -15 -13 0 -22 16 -14 24 11 11 23 6 23 -9z m586 -66 c10 -17
-13 -36 -27 -22 -12 12 -4 33 11 33 5 0 12 -5 16 -11z m-1206 -59 c0 -5 -2
-10 -4 -10 -3 0 -8 5 -11 10 -3 6 -1 10 4 10 6 0 11 -4 11 -10z m257 -86 c-9
-9 -28 6 -21 18 4 6 10 6 17 -1 6 -6 8 -13 4 -17z m133 16 c0 -5 -4 -10 -10
-10 -5 0 -10 5 -10 10 0 6 5 10 10 10 6 0 10 -4 10 -10z m-390 -30 c0 -5 -5
-10 -11 -10 -5 0 -7 5 -4 10 3 6 8 10 11 10 2 0 4 -4 4 -10z m72 -55 c0 -5 -5
-11 -11 -13 -6 -2 -11 4 -11 13 0 9 5 15 11 13 6 -2 11 -8 11 -13z m-152 -20
c0 -8 -7 -15 -15 -15 -8 0 -15 7 -15 15 0 8 7 15 15 15 8 0 15 -7 15 -15z m20
-55 c0 -5 -5 -10 -11 -10 -5 0 -7 5 -4 10 3 6 8 10 11 10 2 0 4 -4 4 -10z
m570 -10 c0 -5 -5 -10 -11 -10 -5 0 -7 5 -4 10 3 6 8 10 11 10 2 0 4 -4 4 -10z
m-410 -20 c0 -5 -4 -10 -10 -10 -5 0 -10 5 -10 10 0 6 5 10 10 10 6 0 10 -4
10 -10z m-570 -39 c0 -6 -4 -13 -10 -16 -5 -3 -10 1 -10 9 0 9 5 16 10 16 6 0
10 -4 10 -9z m-160 -136 c0 -8 -4 -15 -10 -15 -5 0 -10 7 -10 15 0 8 5 15 10
15 6 0 10 -7 10 -15z m75 -16 c10 -15 -1 -23 -20 -15 -9 3 -13 10 -10 16 8 13
22 13 30 -1z m-65 -19 c0 -5 -4 -10 -10 -10 -5 0 -10 5 -10 10 0 6 5 10 10 10
6 0 10 -4 10 -10z m-322 -71 c-2 -6 -8 -10 -13 -10 -5 0 -11 4 -13 10 -2 6 4
11 13 11 9 0 15 -5 13 -11z m1282 -23 c0 -3 -4 -8 -10 -11 -5 -3 -10 -1 -10 4
0 6 5 11 10 11 6 0 10 -2 10 -4z m-8850 -66 c0 -5 -5 -10 -11 -10 -5 0 -7 5
-4 10 3 6 8 10 11 10 2 0 4 -4 4 -10z m2064 -29 c3 -5 -1 -12 -10 -15 -20 -8
-29 -1 -19 13 8 13 22 14 29 2z m4916 -6 c0 -8 -7 -15 -15 -15 -8 0 -15 7 -15
15 0 8 7 15 15 15 8 0 15 -7 15 -15z m1460 -5 c0 -5 -5 -10 -11 -10 -5 0 -7 5
-4 10 3 6 8 10 11 10 2 0 4 -4 4 -10z m-230 -44 c0 -3 -4 -8 -10 -11 -5 -3
-10 -1 -10 4 0 6 5 11 10 11 6 0 10 -2 10 -4z m-849 -29 c-13 -13 -26 -3 -16
12 3 6 11 8 17 5 6 -4 6 -10 -1 -17z m109 -22 c0 -8 -9 -15 -20 -15 -11 0 -20
7 -20 15 0 8 9 15 20 15 11 0 20 -7 20 -15z m-6680 -5 c0 -5 -4 -10 -10 -10
-5 0 -10 5 -10 10 0 6 5 10 10 10 6 0 10 -4 10 -10z m5985 -20 c-5 -8 -11 -8
-17 -2 -6 6 -7 16 -3 22 5 8 11 8 17 2 6 -6 7 -16 3 -22z m114 11 c8 -14 7
-22 -4 -31 -19 -16 -45 -6 -45 18 0 36 33 45 49 13z m-5999 -51 c0 -5 -4 -10
-10 -10 -5 0 -10 5 -10 10 0 6 5 10 10 10 6 0 10 -4 10 -10z m11140 -4 c0 -8
-4 -17 -9 -21 -12 -7 -24 12 -16 25 9 15 25 12 25 -4z m-10350 -26 c0 -5 -4
-10 -10 -10 -5 0 -10 5 -10 10 0 6 5 10 10 10 6 0 10 -4 10 -10z m5900 -50 c0
-5 -4 -10 -10 -10 -5 0 -10 5 -10 10 0 6 5 10 10 10 6 0 10 -4 10 -10z m-540
-60 c0 -5 -4 -10 -10 -10 -5 0 -10 5 -10 10 0 6 5 10 10 10 6 0 10 -4 10 -10z
m-5054 -21 c8 -14 -11 -33 -25 -25 -11 7 -4 36 9 36 5 0 12 -5 16 -11z m-86
-29 c0 -5 -4 -10 -10 -10 -5 0 -10 5 -10 10 0 6 5 10 10 10 6 0 10 -4 10 -10z
m3324 -61 c-7 -11 -15 -11 -33 0 -13 8 -13 12 -1 26 13 16 15 16 27 -1 7 -9
10 -21 7 -25z m4386 16 c0 -8 -6 -15 -14 -15 -17 0 -28 14 -19 24 12 12 33 6
33 -9z m-9790 -5 c0 -5 -4 -10 -10 -10 -5 0 -10 5 -10 10 0 6 5 10 10 10 6 0
10 -4 10 -10z m5230 -11 c0 -5 -4 -9 -10 -9 -5 0 -10 7 -10 16 0 8 5 12 10 9
6 -3 10 -10 10 -16z m290 17 c0 -3 -4 -8 -10 -11 -5 -3 -10 -1 -10 4 0 6 5 11
10 11 6 0 10 -2 10 -4z m145 -46 c-5 -8 -11 -8 -17 -2 -6 6 -7 16 -3 22 5 8
11 8 17 2 6 -6 7 -16 3 -22z m-3630 0 c3 -5 1 -10 -4 -10 -6 0 -11 5 -11 10 0
6 2 10 4 10 3 0 8 -4 11 -10z m4252 -12 c-3 -8 -6 -5 -6 6 -1 11 2 17 5 13 3
-3 4 -12 1 -19z m1616 7 c8 -18 -11 -31 -25 -17 -11 11 -3 32 12 32 4 0 10 -7
13 -15z m-4521 -12 c4 -13 -1 -18 -19 -18 -26 0 -29 5 -11 23 17 17 25 15 30
-5z m1904 6 c10 -17 -13 -36 -27 -22 -12 12 -4 33 11 33 5 0 12 -5 16 -11z
m114 -10 c0 -5 -4 -7 -10 -4 -5 3 -10 -1 -10 -9 0 -9 -7 -16 -15 -16 -20 0
-19 17 3 29 22 13 32 14 32 0z m-3450 -9 c0 -5 -7 -10 -15 -10 -8 0 -15 5 -15
10 0 6 7 10 15 10 8 0 15 -4 15 -10z m3890 0 c0 -5 -7 -10 -15 -10 -8 0 -15 5
-15 10 0 6 7 10 15 10 8 0 15 -4 15 -10z m1500 0 c0 -5 -2 -10 -4 -10 -3 0 -8
5 -11 10 -3 6 -1 10 4 10 6 0 11 -4 11 -10z m-1395 -19 c3 -5 1 -12 -5 -16 -5
-3 -10 1 -10 9 0 18 6 21 15 7z m-3497 -23 c-7 -19 -38 -22 -38 -4 0 10 9 16
21 16 12 0 19 -5 17 -12z m-130 -10 c-7 -19 -38 -22 -38 -4 0 10 9 16 21 16
12 0 19 -5 17 -12z m222 -2 c0 -8 -4 -17 -9 -21 -12 -7 -24 12 -16 25 9 15 25
12 25 -4z m-1010 -6 c0 -5 -4 -10 -10 -10 -5 0 -10 5 -10 10 0 6 5 10 10 10 6
0 10 -4 10 -10z m1420 0 c0 -5 -4 -10 -10 -10 -5 0 -10 5 -10 10 0 6 5 10 10
10 6 0 10 -4 10 -10z m1643 -7 c-7 -2 -19 -2 -25 0 -7 3 -2 5 12 5 14 0 19 -2
13 -5z m687 -3 c0 -5 -4 -10 -10 -10 -5 0 -10 5 -10 10 0 6 5 10 10 10 6 0 10
-4 10 -10z m-792 -22 c-6 -18 -28 -21 -28 -4 0 9 7 16 16 16 9 0 14 -5 12 -12z
m1617 2 c3 -5 1 -10 -4 -10 -6 0 -11 5 -11 10 0 6 2 10 4 10 3 0 8 -4 11 -10z
m-5135 -20 c0 -5 -5 -10 -11 -10 -5 0 -7 5 -4 10 3 6 8 10 11 10 2 0 4 -4 4
-10z m3878 -12 c-6 -18 -28 -21 -28 -4 0 9 7 16 16 16 9 0 14 -5 12 -12z
m-1364 -20 c-9 -31 -10 -32 -31 -23 -12 5 -14 9 -5 12 6 3 12 11 12 19 0 8 7
14 16 14 11 0 14 -6 8 -22z m2696 12 c0 -5 -4 -10 -10 -10 -5 0 -10 5 -10 10
0 6 5 10 10 10 6 0 10 -4 10 -10z m-3820 -41 c0 -5 -7 -9 -15 -9 -15 0 -20 12
-9 23 8 8 24 -1 24 -14z m2375 12 c7 -12 -12 -24 -25 -16 -11 7 -4 25 10 25 5
0 11 -4 15 -9z m2655 -6 c0 -8 -7 -15 -15 -15 -8 0 -15 7 -15 15 0 8 7 15 15
15 8 0 15 -7 15 -15z m-5490 -41 c0 -8 -9 -14 -20 -14 -22 0 -28 26 -7 33 16
6 27 -1 27 -19z m1510 16 c0 -5 -4 -10 -10 -10 -5 0 -10 5 -10 10 0 6 5 10 10
10 6 0 10 -4 10 -10z m1510 0 c0 -5 -4 -10 -10 -10 -5 0 -10 5 -10 10 0 6 5
10 10 10 6 0 10 -4 10 -10z m-1540 -21 c0 -5 -7 -9 -15 -9 -15 0 -20 12 -9 23
8 8 24 -1 24 -14z m794 -20 c-3 -5 -10 -7 -15 -3 -5 3 -7 10 -3 15 3 5 10 7
15 3 5 -3 7 -10 3 -15z m-679 0 c10 -15 -1 -23 -20 -15 -9 3 -13 10 -10 16 8
13 22 13 30 -1z m3375 1 c0 -5 -2 -10 -4 -10 -3 0 -8 5 -11 10 -3 6 -1 10 4
10 6 0 11 -4 11 -10z m-4360 -40 c0 -5 -4 -10 -10 -10 -5 0 -10 5 -10 10 0 6
5 10 10 10 6 0 10 -4 10 -10z m-2790 -21 c0 -5 -7 -9 -15 -9 -15 0 -20 12 -9
23 8 8 24 -1 24 -14z m4980 11 c0 -5 -4 -10 -10 -10 -5 0 -10 5 -10 10 0 6 5
10 10 10 6 0 10 -4 10 -10z m2524 -31 c-3 -5 -10 -7 -15 -3 -5 3 -7 10 -3 15
3 5 10 7 15 3 5 -3 7 -10 3 -15z m-4544 -27 c0 -13 -12 -22 -22 -16 -10 6 -1
24 13 24 5 0 9 -4 9 -8z m3340 -26 c0 -3 -4 -8 -10 -11 -5 -3 -10 -1 -10 4 0
6 5 11 10 11 6 0 10 -2 10 -4z m1030 -16 c0 -5 -4 -10 -10 -10 -5 0 -10 5 -10
10 0 6 5 10 10 10 6 0 10 -4 10 -10z m-4075 -30 c3 -5 -1 -10 -10 -10 -9 0
-13 5 -10 10 3 6 8 10 10 10 2 0 7 -4 10 -10z m9435 0 c0 -5 -7 -10 -15 -10
-8 0 -15 5 -15 10 0 6 7 10 15 10 8 0 15 -4 15 -10z m-6800 -24 c0 -3 -4 -8
-10 -11 -5 -3 -10 -1 -10 4 0 6 5 11 10 11 6 0 10 -2 10 -4z m-1420 -46 c0 -5
-4 -10 -10 -10 -5 0 -10 5 -10 10 0 6 5 10 10 10 6 0 10 -4 10 -10z m-3835
-20 c3 -5 1 -10 -4 -10 -6 0 -11 5 -11 10 0 6 2 10 4 10 3 0 8 -4 11 -10z
m1325 -4 c0 -3 -4 -8 -10 -11 -5 -3 -10 -1 -10 4 0 6 5 11 10 11 6 0 10 -2 10
-4z m2470 -36 c0 -5 -5 -10 -11 -10 -5 0 -7 5 -4 10 3 6 8 10 11 10 2 0 4 -4
4 -10z m330 -10 c0 -5 -4 -10 -10 -10 -5 0 -10 5 -10 10 0 6 5 10 10 10 6 0
10 -4 10 -10z m-720 -20 c0 -5 -5 -10 -11 -10 -5 0 -7 5 -4 10 3 6 8 10 11 10
2 0 4 -4 4 -10z m-3260 -15 c0 -8 -4 -15 -10 -15 -5 0 -10 7 -10 15 0 8 5 15
10 15 6 0 10 -7 10 -15z m6080 -25 c0 -5 -5 -10 -11 -10 -5 0 -7 5 -4 10 3 6
8 10 11 10 2 0 4 -4 4 -10z m-5770 -30 c0 -21 -24 -28 -35 -10 -8 14 3 30 21
30 8 0 14 -9 14 -20z m3120 -60 c0 -5 -5 -10 -11 -10 -5 0 -7 5 -4 10 3 6 8
10 11 10 2 0 4 -4 4 -10z m-430 -90 c0 -11 -7 -20 -15 -20 -8 0 -15 9 -15 20
0 11 7 20 15 20 8 0 15 -9 15 -20z m86 -21 c10 -17 -13 -36 -27 -22 -12 12 -4
33 11 33 5 0 12 -5 16 -11z m3322 -86 c12 -32 24 -80 27 -108 4 -27 15 -75 25
-105 10 -30 21 -86 24 -125 4 -38 12 -85 18 -103 8 -27 12 -31 24 -21 11 9 17
5 29 -24 8 -20 15 -40 15 -45 0 -5 11 -29 24 -53 24 -42 47 -134 62 -244 9
-67 121 -366 145 -387 10 -9 19 -23 19 -31 0 -8 7 -31 15 -50 22 -53 20 -120
-5 -142 -23 -21 -23 -21 -44 25 -9 19 -22 44 -29 55 -6 11 -25 43 -41 70 -46
79 -78 117 -88 107 -10 -10 1 -39 25 -64 11 -12 37 -94 37 -118 0 -6 -4 -10
-10 -10 -5 0 -10 6 -10 13 0 8 -9 22 -20 32 -22 20 -55 119 -45 135 9 14 -17
55 -35 55 -11 0 -15 12 -16 50 0 72 -12 115 -32 115 -14 0 -14 2 -3 9 10 7 11
16 2 42 -5 19 -18 68 -27 109 -23 108 -54 213 -68 229 -6 8 -12 24 -12 35 -1
12 -7 46 -12 76 -44 225 -57 530 -23 530 5 0 18 -26 29 -57z m-5588 -224 c0
-5 -7 -9 -15 -9 -15 0 -20 12 -9 23 8 8 24 -1 24 -14z m120 -764 c0 -8 -4 -15
-9 -15 -13 0 -22 16 -14 24 11 11 23 6 23 -9z m-1156 -136 c-3 -5 -10 -7 -15
-3 -5 3 -7 10 -3 15 3 5 10 7 15 3 5 -3 7 -10 3 -15z m566 -309 c0 -5 -4 -10
-10 -10 -5 0 -10 5 -10 10 0 6 5 10 10 10 6 0 10 -4 10 -10z m1560 -51 c0 -5
-7 -9 -15 -9 -15 0 -20 12 -9 23 8 8 24 -1 24 -14z m4790 -105 c0 -21 -4 -33
-10 -29 -5 3 -10 19 -10 36 0 16 5 29 10 29 6 0 10 -16 10 -36z m4855 -264 c3
-5 -1 -10 -9 -10 -9 0 -16 5 -16 10 0 6 4 10 9 10 6 0 13 -4 16 -10z m-5695
-480 c0 -5 -4 -10 -10 -10 -5 0 -10 5 -10 10 0 6 5 10 10 10 6 0 10 -4 10 -10z"/>
<path d="M5015 10970 c3 -19 10 -39 15 -44 15 -15 12 14 -6 49 l-14 30 5 -35z"/>
<path d="M5496 9545 c-3 -8 -1 -15 4 -15 6 0 10 7 10 15 0 8 -2 15 -4 15 -2 0
-6 -7 -10 -15z"/>
<path d="M9877 8466 c-8 -9 -12 -26 -9 -46 4 -31 5 -31 46 -25 49 8 89 32 80
46 -3 6 -19 9 -34 5 -22 -4 -29 -1 -33 14 -6 23 -30 26 -50 6z"/>
<path d="M10497 7586 c-6 -15 1 -26 15 -26 11 0 10 27 -1 34 -5 3 -11 0 -14
-8z"/>
<path d="M9264 4700 c1 -30 31 -40 33 -10 1 11 -3 20 -8 20 -6 0 -8 -4 -4 -9
3 -5 1 -12 -4 -15 -5 -4 -12 4 -14 16 -3 20 -4 20 -3 -2z"/>
<path d="M7990 3959 c0 -5 5 -7 10 -4 6 3 10 8 10 11 0 2 -4 4 -10 4 -5 0 -10
-5 -10 -11z"/>
<path d="M2990 3700 c-9 -6 -10 -10 -3 -10 6 0 15 5 18 10 8 12 4 12 -15 0z"/>
<path d="M7010 3579 c0 -17 39 -121 49 -132 5 -5 9 14 9 41 1 42 -3 53 -28 77
-20 19 -30 24 -30 14z"/>
<path d="M2862 3561 c-11 -7 -11 -9 2 -14 10 -4 16 -1 16 8 0 17 -1 17 -18 6z"/>
<path d="M2989 3523 c-13 -16 -12 -17 4 -4 16 13 21 21 13 21 -2 0 -10 -8 -17
-17z"/>
<path d="M6950 3493 c1 -21 33 -63 49 -63 16 0 14 11 -9 48 -22 35 -40 42 -40
15z"/>
<path d="M3530 3429 c0 -5 5 -7 10 -4 6 3 10 8 10 11 0 2 -4 4 -10 4 -5 0 -10
-5 -10 -11z"/>
<path d="M11015 8009 c-4 -6 -5 -12 -2 -15 2 -3 7 2 10 11 7 17 1 20 -8 4z"/>
</g>
</svg>
